<?xml version="1.0" standalone="no"?>
<!DOCTYPE svg PUBLIC "-//W3C//DTD SVG 20010904//EN"
 "http://www.w3.org/TR/2001/REC-SVG-20010904/DTD/svg10.dtd">
<svg version="1.0" xmlns="http://www.w3.org/2000/svg"
 width="1024.000000pt" height="1024.000000pt" viewBox="0 0 1024.000000 1024.000000"
 preserveAspectRatio="xMidYMid meet">
<metadata>
Created by potrace 1.11, written by Peter Selinger 2001-2013
</metadata>
<g transform="translate(0.000000,1024.000000) scale(0.100000,-0.100000)"
fill="#000000" stroke="none">
<path d="M4780 9939 c-1154 -78 -2249 -577 -3075 -1404 -760 -759 -1240 -1733
-1374 -2790 -191 -1490 309 -2962 1364 -4020 241 -242 481 -440 755 -622 875
-582 1926 -861 2975 -792 1181 77 2264 567 3100 1404 1064 1064 1565 2534
1374 4030 -175 1376 -945 2617 -2106 3393 -883 591 -1942 873 -3013 801z
m-620 -4456 c0 -1164 -2 -1361 -15 -1443 -85 -521 -451 -820 -1004 -820 -346
0 -637 120 -816 338 -116 139 -195 351 -195 519 l0 53 217 -2 217 -3 12 -65
c28 -150 97 -259 211 -335 93 -63 176 -87 315 -93 318 -13 511 123 594 418 18
61 19 142 22 1423 l3 1357 219 0 220 0 0 -1347z m1340 582 l0 -765 965 0 965
0 2 763 3 762 218 3 217 2 0 -1765 0 -1765 -220 0 -220 0 0 800 0 800 -965 0
-965 0 0 -800 0 -800 -220 0 -220 0 0 1765 0 1765 220 0 220 0 0 -765z"/>
</g>
</svg>
